<svg width="672" height="823" viewBox="0 0 672 823" fill="none" xmlns="http://www.w3.org/2000/svg">
<g clip-path="url(#clip0_122_362)">
<g clip-path="url(#clip1_122_362)" filter="url(#filter0_f_122_362)">
<path fill-rule="evenodd" clip-rule="evenodd" d="M614.585 418.096C691.24 418.688 773.238 428.619 825.555 484.648C876.731 539.456 873.75 620.631 873.718 695.618C873.687 770.558 874.128 849.494 825.377 906.409C773.554 966.91 694.097 1003.03 614.585 998.147C538.628 993.48 469.069 946.2 428.195 882.007C393.485 827.496 426.438 760.086 421.953 695.618C416.775 621.175 357.776 542.662 400.327 481.359C444.469 417.764 537.173 417.497 614.585 418.096Z" fill="#2A3382"/>
<path fill-rule="evenodd" clip-rule="evenodd" d="M396.493 -48.9996C451.353 -49.1323 499.874 -14.4523 535.005 27.7006C567.052 66.1541 577.163 116.218 575.896 166.267C574.667 214.802 567.211 269.159 528.159 297.985C491.446 325.085 441.564 305.795 396.493 298.694C361.385 293.162 330.563 281.353 300.659 262.139C258.059 234.77 199.334 216.116 190.376 166.267C180.944 113.783 221.778 66.8776 258.65 28.3689C296.537 -11.1991 341.723 -48.8672 396.493 -48.9996Z" fill="#FCC92D"/>
<path fill-rule="evenodd" clip-rule="evenodd" d="M149.501 56.6585C218.214 51.6284 264.428 124.073 306.542 178.601C342.034 224.554 367.334 277.627 364.974 335.642C362.705 391.424 326.642 434.925 294.265 480.406C251.213 540.884 222.874 627.04 149.501 638.326C72.8775 650.113 3.47351 591.101 -47.8972 533.04C-96.0206 478.649 -131.553 407.048 -118.306 335.642C-106.336 271.118 -31.5638 247.367 13.8825 200.024C61.2398 150.69 81.2978 61.6511 149.501 56.6585Z" fill="#47BCF3"/>
<path fill-rule="evenodd" clip-rule="evenodd" d="M352.617 60.7777C385.822 52.5537 426.699 33.0175 452.59 55.3475C478.991 78.117 458.871 122.193 463.809 156.677C467.592 183.096 485.865 207.931 478.097 233.467C470.279 259.166 447.943 279.154 423.287 289.885C401.143 299.522 376.737 289.386 352.617 288.077C330.255 286.865 308.881 288.532 287.313 282.511C254.299 273.294 210.76 274.234 194.702 243.991C179.011 214.44 198.863 177.126 216.144 148.474C231.018 123.814 258.93 112.886 283.173 97.3078C305.726 82.815 326.586 67.2249 352.617 60.7777Z" fill="#2A3382"/>
<path fill-rule="evenodd" clip-rule="evenodd" d="M166.358 713.658C203.302 712.851 239.65 675.37 272.397 692.459C304.614 709.273 301.093 756.305 313.461 790.427C326.393 826.107 358.347 860.5 346.357 896.507C334.368 932.511 289.396 942.997 256.389 961.814C227.465 978.304 198.811 991.634 166.358 999.127C124.066 1008.89 71.5459 1041.5 39.9527 1011.79C6.97034 980.766 44.0094 924.376 39.0691 879.413C35.59 847.749 11.2445 820.778 15.4968 789.208C20.2389 754.002 31.8265 712.948 63.6372 697.017C95.4196 681.101 130.808 714.434 166.358 713.658Z" fill="#FCC92D"/>
</g>
</g>
<defs>
<filter id="filter0_f_122_362" x="-200" y="-198" width="1072" height="1276" filterUnits="userSpaceOnUse" color-interpolation-filters="sRGB">
<feFlood flood-opacity="0" result="BackgroundImageFix"/>
<feBlend mode="normal" in="SourceGraphic" in2="BackgroundImageFix" result="shape"/>
<feGaussianBlur stdDeviation="100" result="effect1_foregroundBlur_122_362"/>
</filter>
<clipPath id="clip0_122_362">
<rect width="672" height="823" rx="20" fill="white"/>
</clipPath>
<clipPath id="clip1_122_362">
<rect width="672" height="876" fill="white" transform="translate(0 2)"/>
</clipPath>
</defs>
</svg>
